<?xml version="1.0" encoding="UTF-8"?>
<svg version="1.1" xmlns="http://www.w3.org/2000/svg" width="256" height="256">
<path d="M0 0 C21.58871236 17.98876718 34.44884275 42.80680576 37.68945312 70.61474609 C39.96831843 99.90766049 31.45922242 126.38702887 12.88476562 149.00537109 C-3.82972247 168.39655657 -28.33173707 182.12801913 -53.99804688 184.42724609 C-66.96676156 185.09848852 -79.39026788 184.64565805 -91.99804688 181.42724609 C-93.00480469 181.17201172 -94.0115625 180.91677734 -95.04882812 180.65380859 C-118.10801298 173.85150508 -139.18199313 157.60847503 -151.99804688 137.42724609 C-152.49691406 136.70794922 -152.99578125 135.98865234 -153.50976562 135.24755859 C-167.83002764 113.52285664 -171.26857729 85.13662372 -166.37304688 59.98974609 C-160.81025551 33.99698663 -145.8507262 10.07036088 -123.68554688 -4.88525391 C-85.28224297 -29.71000231 -36.24430831 -28.52954963 0 0 Z M-100.99804688 11.42724609 C-101.8359375 11.86810547 -102.67382812 12.30896484 -103.53710938 12.76318359 C-122.09980381 23.16518883 -135.08363235 40.19823409 -140.99804688 60.42724609 C-146.51197742 82.72352471 -142.57616504 103.89941957 -130.99804688 123.42724609 C-128.53026028 127.28169373 -125.9085481 130.89647411 -122.99804688 134.42724609 C-122.49273437 135.04599609 -121.98742187 135.66474609 -121.46679688 136.30224609 C-111.81078906 146.94356083 -98.4875818 153.26542626 -84.99804688 157.42724609 C-84.16402344 157.69279297 -83.33 157.95833984 -82.47070312 158.23193359 C-64.2155949 162.91602112 -43.63768185 159.19221395 -27.28710938 150.41552734 C-21.86388729 147.13711874 -16.86969716 143.47479985 -11.99804688 139.42724609 C-11.34320313 138.88712891 -10.68835938 138.34701172 -10.01367188 137.79052734 C3.77723794 125.23320808 12.3034497 104.66447202 13.38867188 86.29443359 C13.85951586 71.95402083 11.85093446 58.21504513 5.00195312 45.42724609 C4.52113281 44.49654297 4.0403125 43.56583984 3.54492188 42.60693359 C-6.4985422 24.21351695 -22.49188839 11.99066011 -42.15039062 5.36474609 C-62.05618661 -0.31482258 -82.75993246 1.58902034 -100.99804688 11.42724609 Z " fill="#F41C2A" transform="translate(189.998046875,48.57275390625)"/>
<path d="M0 0 C9.47183049 8.65901141 14.25710309 19.08523711 15.3125 31.75 C14.86241878 44.32726972 10.39780678 55.22402359 1.1875 63.875 C-9.03325012 72.08704778 -19.90055165 74.85522536 -32.828125 73.53515625 C-43.72767183 71.6961933 -53.44700135 65.87825623 -60 57 C-61.43793392 57.31049726 -62.8753318 57.6234776 -64.3125 57.9375 C-65.51326172 58.19853516 -65.51326172 58.19853516 -66.73828125 58.46484375 C-69.145401 58.99886159 -69.145401 58.99886159 -72 60 C-72.33 59.34 -72.66 58.68 -73 58 C-72.0390625 55.609375 -72.0390625 55.609375 -70.625 52.75 C-65.52948096 42.44509557 -64.42796485 26.02032501 -68.1171875 14.99609375 C-69.43051498 11.86321829 -69.43051498 11.86321829 -70.90625 9.14453125 C-72 7 -72 7 -72 4 C-71.2265625 4.309375 -70.453125 4.61875 -69.65625 4.9375 C-66.34336133 6.05272985 -63.49656033 6.8177971 -60 7 C-57.54063607 5.42490175 -56.1106868 3.60743244 -54.26953125 1.34765625 C-51.42558476 -1.59418857 -48.46549903 -3.17004172 -44.8125 -4.9375 C-43.05873047 -5.78634766 -43.05873047 -5.78634766 -41.26953125 -6.65234375 C-27.25906354 -12.42726772 -11.80720155 -8.85057006 0 0 Z " fill="#F21D2B" transform="translate(152,97)"/>
<path d="M0 0 C5.98962565 1.45336505 11.42455077 3.04866375 16.85546875 5.96875 C20.39969989 7.67307973 24.14829551 8.74417527 27.88671875 9.9453125 C30.84740715 10.94830606 33.68954287 12.08295471 36.5625 13.3125 C42.66791414 15.91876374 48.87436338 18.19481159 55.10888672 20.46826172 C60.78323324 22.54072141 66.41751638 24.68951192 72 27 C69.59107581 28.60594946 67.74583971 29.59101109 65.10205078 30.61645508 C63.93405441 31.07251884 63.93405441 31.07251884 62.74246216 31.53779602 C61.90190277 31.86176865 61.06134338 32.18574127 60.1953125 32.51953125 C58.88287064 33.03020393 58.88287064 33.03020393 57.54391479 33.55119324 C54.73890896 34.64167568 51.93198689 35.72712853 49.125 36.8125 C47.27331114 37.53157574 45.42174726 38.2509734 43.5703125 38.97070312 C28.87943459 44.67632007 28.87943459 44.67632007 23.95605469 46.52099609 C22.81297852 46.95105957 21.66990234 47.38112305 20.4921875 47.82421875 C19.53425293 48.17959717 18.57631836 48.53497559 17.58935547 48.90112305 C14.8859999 50.04837964 12.501116 51.46816826 10 53 C8.24889371 53.62119537 6.47671123 54.18652085 4.6875 54.6875 C3.80449219 54.93886719 2.92148438 55.19023437 2.01171875 55.44921875 C1.34785156 55.63097656 0.68398437 55.81273437 0 56 C-0.33 55.34 -0.66 54.68 -1 54 C-0.0390625 51.609375 -0.0390625 51.609375 1.375 48.75 C6.47051904 38.44509557 7.57203515 22.02032501 3.8828125 10.99609375 C2.56948502 7.86321829 2.56948502 7.86321829 1.09375 5.14453125 C0 3 0 3 0 0 Z " fill="#10273E" transform="translate(80,101)"/>
<path d="M0 0 C0.66 0 1.32 0 2 0 C4.40358018 4.90730954 5.68495325 8.42252351 5 14 C3.86523726 16.79023912 2.51386272 19.39804845 1 22 C-1 20 -1 20 -1.23046875 16.19140625 C-1.22647471 14.64837619 -1.21170649 13.10534534 -1.1875 11.5625 C-1.18685547 10.78583984 -1.18621094 10.00917969 -1.18554688 9.20898438 C-1.15987563 5.89739425 -1.05352418 3.16057255 0 0 Z " fill="#E31825" transform="translate(86,118)"/>
<path d="M0 0 C0.93045933 2.55144824 1.08564091 3.74006478 0.22265625 6.359375 C-0.16019531 7.14828125 -0.54304688 7.9371875 -0.9375 8.75 C-1.31777344 9.54921875 -1.69804688 10.3484375 -2.08984375 11.171875 C-2.39019531 11.77515625 -2.69054687 12.3784375 -3 13 C-2.01 13.66 -1.02 14.32 0 15 C-1.98 15.66 -3.96 16.32 -6 17 C-6.33 16.34 -6.66 15.68 -7 15 C-6.07421875 12.5390625 -6.07421875 12.5390625 -4.6875 9.625 C-4.23761719 8.66851562 -3.78773437 7.71203125 -3.32421875 6.7265625 C-2.23131415 4.47627515 -1.12721261 2.2332569 0 0 Z " fill="#030913" transform="translate(86,140)"/>
<path d="M0 0 C2.475 0.495 2.475 0.495 5 1 C4.01 1.33 3.02 1.66 2 2 C2.27714844 2.49628906 2.55429688 2.99257812 2.83984375 3.50390625 C5.28687676 8.09318168 6.56796643 11.81559721 7 17 C4.55213773 14.55213773 3.69919356 12.25682658 2.375 9.0625 C1.70597656 7.47115234 1.70597656 7.47115234 1.0234375 5.84765625 C0 3 0 3 0 0 Z " fill="#040913" transform="translate(80,101)"/>
</svg>
